<svg xmlns="http://www.w3.org/2000/svg" xmlns:xlink="http://www.w3.org/1999/xlink" width="245" zoomAndPan="magnify" viewBox="0 0 183.75 63.749997" height="85" preserveAspectRatio="xMidYMid meet" version="1.0"><defs><g/><clipPath id="4aab28e453"><path d="M 1 12 L 41 12 L 41 51 L 1 51 Z M 1 12 " clip-rule="nonzero"/></clipPath><clipPath id="5d87eeb0ea"><path d="M 37.296875 31.625 C 37.296875 40.710938 29.902344 48.078125 20.785156 48.078125 C 11.664062 48.078125 4.273438 40.710938 4.273438 31.625 C 4.273438 22.535156 11.664062 15.171875 20.785156 15.171875 C 29.902344 15.171875 37.296875 22.535156 37.296875 31.625 Z M 40.082031 31.625 C 40.082031 42.246094 31.441406 50.855469 20.785156 50.855469 C 10.125 50.855469 1.484375 42.246094 1.484375 31.625 C 1.484375 21.003906 10.125 12.390625 20.785156 12.390625 C 31.441406 12.390625 40.082031 21.003906 40.082031 31.625 Z M 31.433594 23.003906 C 31.433594 24.101562 30.539062 24.992188 29.4375 24.992188 C 28.332031 24.992188 27.4375 24.101562 27.4375 23.003906 C 27.4375 21.902344 28.332031 21.011719 29.4375 21.011719 C 30.539062 21.011719 31.433594 21.902344 31.433594 23.003906 Z M 14.980469 33.171875 C 15.835938 36.367188 19.132812 38.265625 22.339844 37.40625 C 25.546875 36.550781 27.449219 33.269531 26.589844 30.074219 C 25.730469 26.878906 22.433594 24.984375 19.230469 25.839844 C 16.023438 26.695312 14.121094 29.980469 14.980469 33.171875 Z M 12.285156 33.890625 C 13.542969 38.570312 18.367188 41.34375 23.0625 40.089844 C 27.753906 38.839844 30.539062 34.03125 29.28125 29.355469 C 28.023438 24.679688 23.199219 21.902344 18.507812 23.15625 C 13.8125 24.410156 11.027344 29.214844 12.285156 33.890625 Z M 12.285156 33.890625 " clip-rule="evenodd"/></clipPath><linearGradient x1="15" gradientTransform="matrix(1.286643, 0, 0, 1.282083, 1.48458, 8.545953)" y1="2.999999" x2="15" gradientUnits="userSpaceOnUse" y2="32.999998" id="cb9176ba68"><stop stop-opacity="1" stop-color="rgb(52.89917%, 49.398804%, 100%)" offset="0"/><stop stop-opacity="1" stop-color="rgb(52.796936%, 49.28894%, 100%)" offset="0.0078125"/><stop stop-opacity="1" stop-color="rgb(52.590942%, 49.07074%, 100%)" offset="0.015625"/><stop stop-opacity="1" stop-color="rgb(52.386475%, 48.852539%, 100%)" offset="0.0234375"/><stop stop-opacity="1" stop-color="rgb(52.182007%, 48.632812%, 100%)" offset="0.03125"/><stop stop-opacity="1" stop-color="rgb(51.976013%, 48.414612%, 100%)" offset="0.0390625"/><stop stop-opacity="1" stop-color="rgb(51.771545%, 48.196411%, 100%)" offset="0.046875"/><stop stop-opacity="1" stop-color="rgb(51.565552%, 47.97821%, 100%)" offset="0.0546875"/><stop stop-opacity="1" stop-color="rgb(51.361084%, 47.758484%, 100%)" offset="0.0625"/><stop stop-opacity="1" stop-color="rgb(51.156616%, 47.540283%, 100%)" offset="0.0703125"/><stop stop-opacity="1" stop-color="rgb(50.950623%, 47.322083%, 100%)" offset="0.078125"/><stop stop-opacity="1" stop-color="rgb(50.746155%, 47.103882%, 100%)" offset="0.0859375"/><stop stop-opacity="1" stop-color="rgb(50.540161%, 46.884155%, 100%)" offset="0.09375"/><stop stop-opacity="1" stop-color="rgb(50.335693%, 46.665955%, 100%)" offset="0.101562"/><stop stop-opacity="1" stop-color="rgb(50.131226%, 46.447754%, 100%)" offset="0.109375"/><stop stop-opacity="1" stop-color="rgb(49.925232%, 46.228027%, 100%)" offset="0.117187"/><stop stop-opacity="1" stop-color="rgb(49.720764%, 46.009827%, 100%)" offset="0.125"/><stop stop-opacity="1" stop-color="rgb(49.514771%, 45.791626%, 100%)" offset="0.132812"/><stop stop-opacity="1" stop-color="rgb(49.310303%, 45.573425%, 100%)" offset="0.140625"/><stop stop-opacity="1" stop-color="rgb(49.105835%, 45.353699%, 100%)" offset="0.148438"/><stop stop-opacity="1" stop-color="rgb(48.899841%, 45.135498%, 100%)" offset="0.15625"/><stop stop-opacity="1" stop-color="rgb(48.695374%, 44.917297%, 100%)" offset="0.164062"/><stop stop-opacity="1" stop-color="rgb(48.490906%, 44.699097%, 100%)" offset="0.171875"/><stop stop-opacity="1" stop-color="rgb(48.284912%, 44.47937%, 100%)" offset="0.179688"/><stop stop-opacity="1" stop-color="rgb(48.080444%, 44.261169%, 100%)" offset="0.1875"/><stop stop-opacity="1" stop-color="rgb(47.874451%, 44.042969%, 100%)" offset="0.195312"/><stop stop-opacity="1" stop-color="rgb(47.669983%, 43.824768%, 100%)" offset="0.203125"/><stop stop-opacity="1" stop-color="rgb(47.465515%, 43.605042%, 100%)" offset="0.210938"/><stop stop-opacity="1" stop-color="rgb(47.259521%, 43.386841%, 100%)" offset="0.21875"/><stop stop-opacity="1" stop-color="rgb(47.055054%, 43.16864%, 100%)" offset="0.226563"/><stop stop-opacity="1" stop-color="rgb(46.84906%, 42.948914%, 100%)" offset="0.234375"/><stop stop-opacity="1" stop-color="rgb(46.644592%, 42.730713%, 100%)" offset="0.242188"/><stop stop-opacity="1" stop-color="rgb(46.440125%, 42.512512%, 100%)" offset="0.25"/><stop stop-opacity="1" stop-color="rgb(46.234131%, 42.294312%, 100%)" offset="0.257812"/><stop stop-opacity="1" stop-color="rgb(46.029663%, 42.074585%, 100%)" offset="0.265625"/><stop stop-opacity="1" stop-color="rgb(45.825195%, 41.856384%, 100%)" offset="0.273438"/><stop stop-opacity="1" stop-color="rgb(45.619202%, 41.638184%, 100%)" offset="0.28125"/><stop stop-opacity="1" stop-color="rgb(45.414734%, 41.419983%, 100%)" offset="0.289062"/><stop stop-opacity="1" stop-color="rgb(45.20874%, 41.200256%, 100%)" offset="0.296875"/><stop stop-opacity="1" stop-color="rgb(45.004272%, 40.982056%, 100%)" offset="0.304687"/><stop stop-opacity="1" stop-color="rgb(44.799805%, 40.763855%, 100%)" offset="0.3125"/><stop stop-opacity="1" stop-color="rgb(44.593811%, 40.544128%, 100%)" offset="0.320312"/><stop stop-opacity="1" stop-color="rgb(44.389343%, 40.325928%, 100%)" offset="0.328125"/><stop stop-opacity="1" stop-color="rgb(44.18335%, 40.107727%, 100%)" offset="0.335938"/><stop stop-opacity="1" stop-color="rgb(43.978882%, 39.889526%, 100%)" offset="0.34375"/><stop stop-opacity="1" stop-color="rgb(43.774414%, 39.6698%, 100%)" offset="0.351562"/><stop stop-opacity="1" stop-color="rgb(43.56842%, 39.451599%, 100%)" offset="0.359375"/><stop stop-opacity="1" stop-color="rgb(43.363953%, 39.233398%, 100%)" offset="0.367187"/><stop stop-opacity="1" stop-color="rgb(43.159485%, 39.015198%, 100%)" offset="0.375"/><stop stop-opacity="1" stop-color="rgb(42.953491%, 38.795471%, 100%)" offset="0.382812"/><stop stop-opacity="1" stop-color="rgb(42.749023%, 38.577271%, 100%)" offset="0.390625"/><stop stop-opacity="1" stop-color="rgb(42.54303%, 38.35907%, 100%)" offset="0.398437"/><stop stop-opacity="1" stop-color="rgb(42.338562%, 38.139343%, 100%)" offset="0.40625"/><stop stop-opacity="1" stop-color="rgb(42.134094%, 37.921143%, 100%)" offset="0.414062"/><stop stop-opacity="1" stop-color="rgb(41.928101%, 37.702942%, 100%)" offset="0.421875"/><stop stop-opacity="1" stop-color="rgb(41.723633%, 37.484741%, 100%)" offset="0.429687"/><stop stop-opacity="1" stop-color="rgb(41.517639%, 37.265015%, 100%)" offset="0.4375"/><stop stop-opacity="1" stop-color="rgb(41.313171%, 37.046814%, 100%)" offset="0.445312"/><stop stop-opacity="1" stop-color="rgb(41.108704%, 36.828613%, 100%)" offset="0.453125"/><stop stop-opacity="1" stop-color="rgb(40.90271%, 36.610413%, 100%)" offset="0.460937"/><stop stop-opacity="1" stop-color="rgb(40.644836%, 36.329651%, 100%)" offset="0.46875"/><stop stop-opacity="1" stop-color="rgb(40.332031%, 35.98938%, 100%)" offset="0.476562"/><stop stop-opacity="1" stop-color="rgb(40.0177%, 35.646057%, 100%)" offset="0.484375"/><stop stop-opacity="1" stop-color="rgb(39.704895%, 35.30426%, 100%)" offset="0.492188"/><stop stop-opacity="1" stop-color="rgb(39.39209%, 34.962463%, 100%)" offset="0.5"/><stop stop-opacity="1" stop-color="rgb(39.079285%, 34.620667%, 100%)" offset="0.507812"/><stop stop-opacity="1" stop-color="rgb(38.766479%, 34.27887%, 100%)" offset="0.515625"/><stop stop-opacity="1" stop-color="rgb(38.453674%, 33.937073%, 100%)" offset="0.523438"/><stop stop-opacity="1" stop-color="rgb(38.139343%, 33.59375%, 100%)" offset="0.53125"/><stop stop-opacity="1" stop-color="rgb(37.826538%, 33.251953%, 100%)" offset="0.539062"/><stop stop-opacity="1" stop-color="rgb(37.513733%, 32.910156%, 100%)" offset="0.546875"/><stop stop-opacity="1" stop-color="rgb(37.200928%, 32.568359%, 100%)" offset="0.554688"/><stop stop-opacity="1" stop-color="rgb(36.888123%, 32.226562%, 100%)" offset="0.5625"/><stop stop-opacity="1" stop-color="rgb(36.573792%, 31.88324%, 100%)" offset="0.570312"/><stop stop-opacity="1" stop-color="rgb(36.260986%, 31.541443%, 100%)" offset="0.578125"/><stop stop-opacity="1" stop-color="rgb(35.948181%, 31.199646%, 100%)" offset="0.585938"/><stop stop-opacity="1" stop-color="rgb(35.635376%, 30.857849%, 100%)" offset="0.59375"/><stop stop-opacity="1" stop-color="rgb(35.322571%, 30.516052%, 100%)" offset="0.601563"/><stop stop-opacity="1" stop-color="rgb(35.009766%, 30.174255%, 100%)" offset="0.609375"/><stop stop-opacity="1" stop-color="rgb(34.695435%, 29.830933%, 100%)" offset="0.617188"/><stop stop-opacity="1" stop-color="rgb(34.382629%, 29.489136%, 100%)" offset="0.625"/><stop stop-opacity="1" stop-color="rgb(34.069824%, 29.147339%, 100%)" offset="0.632812"/><stop stop-opacity="1" stop-color="rgb(33.757019%, 28.805542%, 100%)" offset="0.640625"/><stop stop-opacity="1" stop-color="rgb(33.444214%, 28.463745%, 100%)" offset="0.648437"/><stop stop-opacity="1" stop-color="rgb(33.131409%, 28.120422%, 100%)" offset="0.65625"/><stop stop-opacity="1" stop-color="rgb(32.817078%, 27.778625%, 100%)" offset="0.664062"/><stop stop-opacity="1" stop-color="rgb(32.504272%, 27.436829%, 100%)" offset="0.671875"/><stop stop-opacity="1" stop-color="rgb(32.191467%, 27.095032%, 100%)" offset="0.679688"/><stop stop-opacity="1" stop-color="rgb(31.878662%, 26.753235%, 100%)" offset="0.6875"/><stop stop-opacity="1" stop-color="rgb(31.565857%, 26.411438%, 100%)" offset="0.695312"/><stop stop-opacity="1" stop-color="rgb(31.251526%, 26.068115%, 100%)" offset="0.703125"/><stop stop-opacity="1" stop-color="rgb(30.938721%, 25.726318%, 100%)" offset="0.710938"/><stop stop-opacity="1" stop-color="rgb(30.625916%, 25.384521%, 100%)" offset="0.71875"/><stop stop-opacity="1" stop-color="rgb(30.31311%, 25.042725%, 100%)" offset="0.726562"/><stop stop-opacity="1" stop-color="rgb(30.000305%, 24.700928%, 100%)" offset="0.734375"/><stop stop-opacity="1" stop-color="rgb(29.6875%, 24.359131%, 100%)" offset="0.742188"/><stop stop-opacity="1" stop-color="rgb(29.373169%, 24.015808%, 100%)" offset="0.75"/><stop stop-opacity="1" stop-color="rgb(29.060364%, 23.674011%, 100%)" offset="0.757812"/><stop stop-opacity="1" stop-color="rgb(28.747559%, 23.332214%, 100%)" offset="0.765625"/><stop stop-opacity="1" stop-color="rgb(28.434753%, 22.990417%, 100%)" offset="0.773437"/><stop stop-opacity="1" stop-color="rgb(28.121948%, 22.648621%, 100%)" offset="0.78125"/><stop stop-opacity="1" stop-color="rgb(27.807617%, 22.305298%, 100%)" offset="0.789062"/><stop stop-opacity="1" stop-color="rgb(27.494812%, 21.963501%, 100%)" offset="0.796875"/><stop stop-opacity="1" stop-color="rgb(27.182007%, 21.621704%, 100%)" offset="0.804687"/><stop stop-opacity="1" stop-color="rgb(26.869202%, 21.279907%, 100%)" offset="0.8125"/><stop stop-opacity="1" stop-color="rgb(26.556396%, 20.93811%, 100%)" offset="0.820312"/><stop stop-opacity="1" stop-color="rgb(26.243591%, 20.596313%, 100%)" offset="0.828125"/><stop stop-opacity="1" stop-color="rgb(25.92926%, 20.252991%, 100%)" offset="0.835938"/><stop stop-opacity="1" stop-color="rgb(25.616455%, 19.911194%, 100%)" offset="0.84375"/><stop stop-opacity="1" stop-color="rgb(25.30365%, 19.569397%, 100%)" offset="0.851562"/><stop stop-opacity="1" stop-color="rgb(24.990845%, 19.2276%, 100%)" offset="0.859375"/><stop stop-opacity="1" stop-color="rgb(24.67804%, 18.885803%, 100%)" offset="0.867188"/><stop stop-opacity="1" stop-color="rgb(24.363708%, 18.54248%, 100%)" offset="0.875"/><stop stop-opacity="1" stop-color="rgb(24.050903%, 18.200684%, 100%)" offset="0.882812"/><stop stop-opacity="1" stop-color="rgb(23.738098%, 17.858887%, 100%)" offset="0.890625"/><stop stop-opacity="1" stop-color="rgb(23.425293%, 17.51709%, 100%)" offset="0.898438"/><stop stop-opacity="1" stop-color="rgb(23.112488%, 17.175293%, 100%)" offset="0.90625"/><stop stop-opacity="1" stop-color="rgb(22.799683%, 16.833496%, 100%)" offset="0.914063"/><stop stop-opacity="1" stop-color="rgb(22.485352%, 16.490173%, 100%)" offset="0.921875"/><stop stop-opacity="1" stop-color="rgb(22.172546%, 16.148376%, 100%)" offset="0.929688"/><stop stop-opacity="1" stop-color="rgb(21.859741%, 15.80658%, 100%)" offset="0.9375"/><stop stop-opacity="1" stop-color="rgb(21.546936%, 15.464783%, 100%)" offset="0.945312"/><stop stop-opacity="1" stop-color="rgb(21.234131%, 15.122986%, 100%)" offset="0.953125"/><stop stop-opacity="1" stop-color="rgb(20.9198%, 14.781189%, 100%)" offset="0.960937"/><stop stop-opacity="1" stop-color="rgb(20.606995%, 14.437866%, 100%)" offset="0.96875"/><stop stop-opacity="1" stop-color="rgb(20.294189%, 14.096069%, 100%)" offset="0.976562"/><stop stop-opacity="1" stop-color="rgb(19.981384%, 13.754272%, 100%)" offset="0.984375"/><stop stop-opacity="1" stop-color="rgb(19.668579%, 13.412476%, 100%)" offset="0.992188"/><stop stop-opacity="1" stop-color="rgb(19.355774%, 13.070679%, 100%)" offset="1"/></linearGradient></defs><g fill="#000000" fill-opacity="1"><g transform="translate(46.862125, 40.307934)"><g><path d="M 1.953125 0 L 1.953125 -16.703125 L 7.71875 -16.703125 L 7.71875 -14.9375 L 7.78125 -14.9375 C 9.28125 -16.4375 10.875 -17.1875 12.5625 -17.1875 C 13.78125 -17.1875 14.921875 -16.9375 15.984375 -16.4375 C 17.046875 -15.9375 17.847656 -15.164062 18.390625 -14.125 C 20.078125 -16.164062 21.921875 -17.1875 23.921875 -17.1875 C 25.703125 -17.1875 27.234375 -16.6875 28.515625 -15.6875 C 29.796875 -14.6875 30.4375 -13.125 30.4375 -11 L 30.4375 0 L 24.671875 0 L 24.671875 -9.4375 C 24.671875 -10.320312 24.425781 -11.0625 23.9375 -11.65625 C 23.445312 -12.257812 22.710938 -12.5625 21.734375 -12.5625 C 20.890625 -12.5625 20.242188 -12.304688 19.796875 -11.796875 C 19.359375 -11.285156 19.117188 -10.671875 19.078125 -9.953125 L 19.078125 0 L 13.3125 0 L 13.3125 -9.4375 C 13.3125 -10.320312 13.066406 -11.0625 12.578125 -11.65625 C 12.085938 -12.257812 11.351562 -12.5625 10.375 -12.5625 C 9.488281 -12.5625 8.820312 -12.285156 8.375 -11.734375 C 7.9375 -11.179688 7.71875 -10.523438 7.71875 -9.765625 L 7.71875 0 Z M 1.953125 0 "/></g></g></g><g fill="#000000" fill-opacity="1"><g transform="translate(78.259131, 40.307934)"><g><path d="M 2.5 -26 C 3.175781 -26.675781 3.976562 -27.015625 4.90625 -27.015625 C 5.84375 -27.015625 6.644531 -26.675781 7.3125 -26 C 7.988281 -25.332031 8.328125 -24.53125 8.328125 -23.59375 C 8.328125 -22.664062 7.988281 -21.863281 7.3125 -21.1875 C 6.644531 -20.507812 5.84375 -20.171875 4.90625 -20.171875 C 3.976562 -20.171875 3.175781 -20.507812 2.5 -21.1875 C 1.832031 -21.863281 1.5 -22.664062 1.5 -23.59375 C 1.5 -24.53125 1.832031 -25.332031 2.5 -26 Z M 1.953125 -16.703125 L 1.953125 0 L 7.71875 0 L 7.71875 -16.703125 Z M 1.953125 -16.703125 "/></g></g></g><g fill="#000000" fill-opacity="1"><g transform="translate(87.43403, 40.307934)"><g><path d="M 1.953125 0 L 1.953125 -16.703125 L 7.71875 -16.703125 L 7.71875 -14.9375 L 7.78125 -14.9375 C 9.28125 -16.4375 10.875 -17.1875 12.5625 -17.1875 C 13.382812 -17.1875 14.203125 -17.078125 15.015625 -16.859375 C 15.828125 -16.640625 16.609375 -16.300781 17.359375 -15.84375 C 18.109375 -15.394531 18.71875 -14.75 19.1875 -13.90625 C 19.65625 -13.070312 19.890625 -12.101562 19.890625 -11 L 19.890625 0 L 14.125 0 L 14.125 -9.4375 C 14.125 -10.300781 13.847656 -11.054688 13.296875 -11.703125 C 12.742188 -12.359375 12.019531 -12.6875 11.125 -12.6875 C 10.257812 -12.6875 9.472656 -12.347656 8.765625 -11.671875 C 8.066406 -11.003906 7.71875 -10.257812 7.71875 -9.4375 L 7.71875 0 Z M 1.953125 0 "/></g></g></g><g fill="#000000" fill-opacity="1"><g transform="translate(108.289369, 40.307934)"><g><path d="M 2.921875 -16.703125 L 2.921875 -22.90625 L 8.6875 -22.90625 L 8.6875 -16.703125 L 12.203125 -16.703125 L 12.203125 -12.296875 L 8.6875 -12.296875 L 8.6875 -7 C 8.6875 -5.457031 9.117188 -4.6875 9.984375 -4.6875 C 10.203125 -4.6875 10.429688 -4.726562 10.671875 -4.8125 C 10.910156 -4.90625 11.097656 -4.992188 11.234375 -5.078125 L 11.421875 -5.203125 L 12.859375 -0.546875 C 11.617188 0.140625 10.207031 0.484375 8.625 0.484375 C 7.539062 0.484375 6.609375 0.296875 5.828125 -0.078125 C 5.046875 -0.460938 4.453125 -0.972656 4.046875 -1.609375 C 3.648438 -2.253906 3.363281 -2.925781 3.1875 -3.625 C 3.007812 -4.332031 2.921875 -5.085938 2.921875 -5.890625 L 2.921875 -12.296875 L 0.515625 -12.296875 L 0.515625 -16.703125 Z M 2.921875 -16.703125 "/></g></g></g><g fill="#000000" fill-opacity="1"><g transform="translate(120.490116, 40.307934)"><g><path d="M 1.953125 0 L 1.953125 -27.984375 L 7.71875 -27.984375 L 7.71875 0 Z M 1.953125 0 "/></g></g></g><g fill="#000000" fill-opacity="1"><g transform="translate(129.502334, 40.307934)"><g><path d="M 2.5 -26 C 3.175781 -26.675781 3.976562 -27.015625 4.90625 -27.015625 C 5.84375 -27.015625 6.644531 -26.675781 7.3125 -26 C 7.988281 -25.332031 8.328125 -24.53125 8.328125 -23.59375 C 8.328125 -22.664062 7.988281 -21.863281 7.3125 -21.1875 C 6.644531 -20.507812 5.84375 -20.171875 4.90625 -20.171875 C 3.976562 -20.171875 3.175781 -20.507812 2.5 -21.1875 C 1.832031 -21.863281 1.5 -22.664062 1.5 -23.59375 C 1.5 -24.53125 1.832031 -25.332031 2.5 -26 Z M 1.953125 -16.703125 L 1.953125 0 L 7.71875 0 L 7.71875 -16.703125 Z M 1.953125 -16.703125 "/></g></g></g><g fill="#000000" fill-opacity="1"><g transform="translate(138.67723, 40.307934)"><g><path d="M 2.921875 -16.703125 L 2.921875 -20.25 C 2.953125 -22.738281 3.539062 -24.734375 4.6875 -26.234375 C 5.832031 -27.734375 7.425781 -28.484375 9.46875 -28.484375 C 10.332031 -28.484375 11.160156 -28.359375 11.953125 -28.109375 C 12.753906 -27.859375 13.328125 -27.601562 13.671875 -27.34375 L 14.21875 -26.984375 L 12.203125 -22.90625 C 11.679688 -23.21875 11.109375 -23.375 10.484375 -23.375 C 9.765625 -23.375 9.285156 -23.128906 9.046875 -22.640625 C 8.804688 -22.148438 8.6875 -21.296875 8.6875 -20.078125 L 8.6875 -16.703125 L 12.53125 -16.703125 L 12.53125 -12.296875 L 8.6875 -12.296875 L 8.6875 0 L 2.921875 0 L 2.921875 -12.296875 L 0.515625 -12.296875 L 0.515625 -16.703125 Z M 2.921875 -16.703125 "/></g></g></g><g fill="#000000" fill-opacity="1"><g transform="translate(150.227262, 40.307934)"><g><path d="M 18.84375 -7.546875 L 6.734375 -7.546875 C 6.734375 -6.378906 7.113281 -5.507812 7.875 -4.9375 C 8.632812 -4.375 9.457031 -4.09375 10.34375 -4.09375 C 11.28125 -4.09375 12.019531 -4.21875 12.5625 -4.46875 C 13.101562 -4.71875 13.722656 -5.210938 14.421875 -5.953125 L 18.578125 -3.875 C 16.847656 -0.96875 13.960938 0.484375 9.921875 0.484375 C 7.410156 0.484375 5.253906 -0.375 3.453125 -2.09375 C 1.648438 -3.820312 0.75 -5.898438 0.75 -8.328125 C 0.75 -10.765625 1.648438 -12.847656 3.453125 -14.578125 C 5.253906 -16.316406 7.410156 -17.1875 9.921875 -17.1875 C 12.566406 -17.1875 14.71875 -16.421875 16.375 -14.890625 C 18.039062 -13.359375 18.875 -11.171875 18.875 -8.328125 C 18.875 -7.941406 18.863281 -7.679688 18.84375 -7.546875 Z M 6.90625 -10.734375 L 13.25 -10.734375 C 13.113281 -11.609375 12.769531 -12.273438 12.21875 -12.734375 C 11.664062 -13.203125 10.957031 -13.4375 10.09375 -13.4375 C 9.132812 -13.4375 8.375 -13.1875 7.8125 -12.6875 C 7.25 -12.1875 6.945312 -11.535156 6.90625 -10.734375 Z M 6.90625 -10.734375 "/></g></g></g><g clip-path="url(#4aab28e453)"><g clip-path="url(#5d87eeb0ea)"><path fill="url(#cb9176ba68)" d="M 1.484375 12.390625 L 1.484375 50.855469 L 40.082031 50.855469 L 40.082031 12.390625 Z M 1.484375 12.390625 " fill-rule="nonzero"/></g></g></svg>